<mxfile host="app.diagrams.net" modified="2023-04-25T08:20:08.929Z" agent="Mozilla/5.0 (Windows NT 10.0; Win64; x64) AppleWebKit/537.36 (KHTML, like Gecko) Chrome/114.0.0.0 Safari/537.36 Edg/114.0.0.0" etag="-M6ahwVDgsEumGH0dGR7" version="21.1.4" type="device">
  <diagram name="第 1 页" id="pbx5kK6gxqWVH00MtzMs">
    <mxGraphModel dx="1743" dy="765" grid="1" gridSize="10" guides="1" tooltips="1" connect="1" arrows="1" fold="1" page="1" pageScale="1" pageWidth="827" pageHeight="1169" math="0" shadow="0">
      <root>
        <mxCell id="0" />
        <mxCell id="1" parent="0" />
        <mxCell id="_kXfG3jh3vT0Z-OCthv3-81" style="edgeStyle=orthogonalEdgeStyle;rounded=0;orthogonalLoop=1;jettySize=auto;html=1;" edge="1" parent="1" source="b5QjZ0FhUWjDHF4bmJcZ-7" target="_kXfG3jh3vT0Z-OCthv3-80">
          <mxGeometry relative="1" as="geometry" />
        </mxCell>
        <mxCell id="b5QjZ0FhUWjDHF4bmJcZ-7" value="开始" style="rounded=1;whiteSpace=wrap;html=1;" parent="1" vertex="1">
          <mxGeometry x="353" y="110" width="120" height="60" as="geometry" />
        </mxCell>
        <mxCell id="_kXfG3jh3vT0Z-OCthv3-83" style="edgeStyle=orthogonalEdgeStyle;rounded=0;orthogonalLoop=1;jettySize=auto;html=1;" edge="1" parent="1" source="_kXfG3jh3vT0Z-OCthv3-80" target="_kXfG3jh3vT0Z-OCthv3-82">
          <mxGeometry relative="1" as="geometry" />
        </mxCell>
        <mxCell id="_kXfG3jh3vT0Z-OCthv3-80" value="选择登录类型" style="shape=parallelogram;perimeter=parallelogramPerimeter;whiteSpace=wrap;html=1;fixedSize=1;" vertex="1" parent="1">
          <mxGeometry x="353" y="210" width="120" height="60" as="geometry" />
        </mxCell>
        <mxCell id="_kXfG3jh3vT0Z-OCthv3-86" style="edgeStyle=orthogonalEdgeStyle;rounded=0;orthogonalLoop=1;jettySize=auto;html=1;" edge="1" parent="1" source="_kXfG3jh3vT0Z-OCthv3-82" target="_kXfG3jh3vT0Z-OCthv3-85">
          <mxGeometry relative="1" as="geometry" />
        </mxCell>
        <mxCell id="_kXfG3jh3vT0Z-OCthv3-91" value="否" style="edgeStyle=orthogonalEdgeStyle;rounded=0;orthogonalLoop=1;jettySize=auto;html=1;" edge="1" parent="1" source="_kXfG3jh3vT0Z-OCthv3-82" target="_kXfG3jh3vT0Z-OCthv3-90">
          <mxGeometry relative="1" as="geometry" />
        </mxCell>
        <mxCell id="_kXfG3jh3vT0Z-OCthv3-82" value="1" style="rhombus;whiteSpace=wrap;html=1;" vertex="1" parent="1">
          <mxGeometry x="213" y="330" width="80" height="80" as="geometry" />
        </mxCell>
        <mxCell id="_kXfG3jh3vT0Z-OCthv3-88" style="edgeStyle=orthogonalEdgeStyle;rounded=0;orthogonalLoop=1;jettySize=auto;html=1;" edge="1" parent="1" source="_kXfG3jh3vT0Z-OCthv3-85" target="_kXfG3jh3vT0Z-OCthv3-87">
          <mxGeometry relative="1" as="geometry" />
        </mxCell>
        <mxCell id="_kXfG3jh3vT0Z-OCthv3-85" value="普通用户登录" style="rounded=0;whiteSpace=wrap;html=1;" vertex="1" parent="1">
          <mxGeometry x="193" y="470" width="120" height="60" as="geometry" />
        </mxCell>
        <mxCell id="_kXfG3jh3vT0Z-OCthv3-87" value="结束" style="rounded=1;whiteSpace=wrap;html=1;" vertex="1" parent="1">
          <mxGeometry x="193" y="590" width="120" height="60" as="geometry" />
        </mxCell>
        <mxCell id="_kXfG3jh3vT0Z-OCthv3-93" style="edgeStyle=orthogonalEdgeStyle;rounded=0;orthogonalLoop=1;jettySize=auto;html=1;" edge="1" parent="1" source="_kXfG3jh3vT0Z-OCthv3-90" target="_kXfG3jh3vT0Z-OCthv3-92">
          <mxGeometry relative="1" as="geometry" />
        </mxCell>
        <mxCell id="_kXfG3jh3vT0Z-OCthv3-97" value="否" style="edgeStyle=orthogonalEdgeStyle;rounded=0;orthogonalLoop=1;jettySize=auto;html=1;" edge="1" parent="1" source="_kXfG3jh3vT0Z-OCthv3-90" target="_kXfG3jh3vT0Z-OCthv3-96">
          <mxGeometry relative="1" as="geometry">
            <Array as="points">
              <mxPoint x="483" y="370" />
              <mxPoint x="483" y="370" />
            </Array>
          </mxGeometry>
        </mxCell>
        <mxCell id="_kXfG3jh3vT0Z-OCthv3-90" value="2" style="rhombus;whiteSpace=wrap;html=1;" vertex="1" parent="1">
          <mxGeometry x="373" y="330" width="80" height="80" as="geometry" />
        </mxCell>
        <mxCell id="_kXfG3jh3vT0Z-OCthv3-95" style="edgeStyle=orthogonalEdgeStyle;rounded=0;orthogonalLoop=1;jettySize=auto;html=1;" edge="1" parent="1" source="_kXfG3jh3vT0Z-OCthv3-92" target="_kXfG3jh3vT0Z-OCthv3-94">
          <mxGeometry relative="1" as="geometry" />
        </mxCell>
        <mxCell id="_kXfG3jh3vT0Z-OCthv3-92" value="管理员登录" style="rounded=0;whiteSpace=wrap;html=1;" vertex="1" parent="1">
          <mxGeometry x="353" y="470" width="120" height="60" as="geometry" />
        </mxCell>
        <mxCell id="_kXfG3jh3vT0Z-OCthv3-94" value="结束" style="rounded=1;whiteSpace=wrap;html=1;" vertex="1" parent="1">
          <mxGeometry x="353" y="590" width="120" height="60" as="geometry" />
        </mxCell>
        <mxCell id="_kXfG3jh3vT0Z-OCthv3-99" value="是" style="edgeStyle=orthogonalEdgeStyle;rounded=0;orthogonalLoop=1;jettySize=auto;html=1;" edge="1" parent="1" source="_kXfG3jh3vT0Z-OCthv3-96" target="_kXfG3jh3vT0Z-OCthv3-98">
          <mxGeometry relative="1" as="geometry" />
        </mxCell>
        <mxCell id="_kXfG3jh3vT0Z-OCthv3-100" value="否" style="edgeStyle=orthogonalEdgeStyle;rounded=0;orthogonalLoop=1;jettySize=auto;html=1;" edge="1" parent="1" source="_kXfG3jh3vT0Z-OCthv3-96" target="_kXfG3jh3vT0Z-OCthv3-80">
          <mxGeometry relative="1" as="geometry">
            <Array as="points">
              <mxPoint x="573" y="240" />
            </Array>
          </mxGeometry>
        </mxCell>
        <mxCell id="_kXfG3jh3vT0Z-OCthv3-96" value="0" style="rhombus;whiteSpace=wrap;html=1;" vertex="1" parent="1">
          <mxGeometry x="533" y="330" width="80" height="80" as="geometry" />
        </mxCell>
        <mxCell id="_kXfG3jh3vT0Z-OCthv3-98" value="结束" style="rounded=1;whiteSpace=wrap;html=1;" vertex="1" parent="1">
          <mxGeometry x="513" y="590" width="120" height="60" as="geometry" />
        </mxCell>
      </root>
    </mxGraphModel>
  </diagram>
</mxfile>
